#N canvas 260 81 450 300 10;
#X obj 116 119 bng 15 250 50 0 empty empty strt 17 7 0 10 -262144 -1
-1;
#X obj 116 152 t b b b b b;
#X obj 134 231 line;
#X msg 194 205 0;
#X msg 146 205 60000;
#X msg 110 206 1;
#X obj 219 116 s start;
#X connect 0 0 1 0;
#X connect 0 0 6 0;
#X connect 1 2 5 0;
#X connect 1 3 4 0;
#X connect 1 4 3 0;
#X connect 3 0 2 0;
#X connect 4 0 2 1;
#X connect 5 0 2 0;
#X coords 0 -1 1 1 85 60 1 100 100;
