#N canvas 10 174 1111 469 10;
#X obj 116 119 bng 15 250 50 0 empty empty strt 17 7 0 10 -262144 -1
-1;
#X obj 116 152 t b b b b b;
#X obj 134 231 line;
#X msg 194 205 0;
#X obj 219 116 s start;
#X text 580 25 12min = 720000ms;
#X msg 89 206 720000;
#X obj 134 259 select 720000;
#X obj 134 282 s stop;
#X obj 306 233 select 50000;
#X obj 306 262 select 160000;
#X obj 302 292 select 290000;
#X obj 304 325 select 430000;
#X obj 304 358 select 550000;
#X obj 305 386 select 660000;
#X obj 25 344 s playdont1;
#X msg 24 313 1;
#X msg 60 312 0;
#X obj 131 343 s playdont2;
#X msg 131 317 1;
#X msg 168 317 0;
#X obj 427 235 s point2;
#X obj 427 267 s point3;
#X obj 427 298 s point4;
#X obj 425 328 s point5;
#X obj 425 359 s point6;
#X obj 426 387 s point7;
#X obj 805 74 s min1;
#X obj 804 104 s min2;
#X obj 804 133 s min3;
#X obj 802 163 s min4;
#X obj 802 194 s min5;
#X obj 803 222 s min6;
#X obj 803 250 s min7;
#X obj 801 282 s min8;
#X obj 803 313 s min9;
#X obj 801 343 s min10;
#X obj 801 374 s min11;
#X obj 802 402 s min12;
#X obj 688 75 select 60000;
#X obj 688 104 select 120000;
#X obj 684 134 select 180000;
#X obj 686 167 select 240000;
#X obj 688 194 select 300000;
#X obj 687 228 select 360000;
#X obj 689 257 select 420000;
#X obj 684 316 select 540000;
#X obj 688 286 select 480000;
#X obj 686 349 select 600000;
#X obj 686 382 select 660000;
#X msg 143 206 720000;
#X floatatom 154 416 20 0 0 0 - - -, f 20;
#X obj 155 55 delay 10000;
#X connect 0 0 52 0;
#X connect 1 1 16 0;
#X connect 1 1 19 0;
#X connect 1 2 6 0;
#X connect 1 3 50 0;
#X connect 1 4 3 0;
#X connect 2 0 7 0;
#X connect 2 0 9 0;
#X connect 2 0 10 0;
#X connect 2 0 11 0;
#X connect 2 0 12 0;
#X connect 2 0 13 0;
#X connect 2 0 14 0;
#X connect 2 0 39 0;
#X connect 2 0 40 0;
#X connect 2 0 41 0;
#X connect 2 0 42 0;
#X connect 2 0 43 0;
#X connect 2 0 44 0;
#X connect 2 0 45 0;
#X connect 2 0 47 0;
#X connect 2 0 46 0;
#X connect 2 0 48 0;
#X connect 2 0 49 0;
#X connect 2 0 51 0;
#X connect 3 0 2 0;
#X connect 6 0 2 0;
#X connect 7 0 8 0;
#X connect 7 0 20 0;
#X connect 7 0 17 0;
#X connect 9 0 20 0;
#X connect 9 0 21 0;
#X connect 10 0 19 0;
#X connect 10 0 17 0;
#X connect 10 0 22 0;
#X connect 11 0 16 0;
#X connect 11 0 20 0;
#X connect 11 0 23 0;
#X connect 12 0 19 0;
#X connect 12 0 24 0;
#X connect 13 0 17 0;
#X connect 13 0 25 0;
#X connect 14 0 16 0;
#X connect 14 0 26 0;
#X connect 16 0 15 0;
#X connect 17 0 15 0;
#X connect 19 0 18 0;
#X connect 20 0 18 0;
#X connect 39 0 27 0;
#X connect 40 0 28 0;
#X connect 41 0 29 0;
#X connect 42 0 30 0;
#X connect 43 0 31 0;
#X connect 44 0 32 0;
#X connect 45 0 33 0;
#X connect 46 0 35 0;
#X connect 47 0 34 0;
#X connect 48 0 36 0;
#X connect 49 0 37 0;
#X connect 50 0 2 1;
#X connect 52 0 1 0;
#X connect 52 0 4 0;
#X coords 0 -1 1 1 85 60 1 100 100;
