#N canvas 117 16 1221 600 10;
#X obj 48 165 line;
#X obj 31 107 t b b b b b;
#X msg 53 137 60000;
#X obj 44 350 line;
#X obj 27 292 t b b b b b;
#X msg 99 317 2013;
#X msg 8 321 1905;
#X msg 49 322 60000;
#X obj 45 445 line;
#X obj 28 387 t b b b b b;
#X msg 50 417 60000;
#X obj 191 72 line;
#X obj 174 14 t b b b b b;
#X msg 196 44 60000;
#X obj 184 259 line;
#X obj 167 201 t b b b b b;
#X msg 239 226 2013;
#X msg 148 230 1905;
#X msg 189 231 60000;
#X obj 188 356 line;
#X obj 171 298 t b b b b b;
#X msg 193 328 60000;
#X obj 54 542 line;
#X obj 37 484 t b b b b b;
#X msg 18 513 1905;
#X msg 59 514 60000;
#X obj 611 254 line;
#X obj 594 196 t b b b b b;
#X msg 666 221 2013;
#X msg 575 225 1905;
#X msg 616 226 60000;
#X obj 616 446 line;
#X obj 599 388 t b b b b b;
#X msg 621 418 60000;
#X obj 762 73 line;
#X obj 745 15 t b b b b b;
#X msg 767 45 60000;
#X obj 763 172 line;
#X obj 746 114 t b b b b b;
#X msg 818 139 2013;
#X msg 768 144 60000;
#X obj 755 260 line;
#X obj 738 202 t b b b b b;
#X msg 760 232 60000;
#X obj 625 543 line;
#X obj 608 485 t b b b b b;
#X msg 680 510 2013;
#X msg 589 514 1905;
#X msg 630 515 60000;
#X obj 43 62 line;
#X obj 30 8 t b b b b b;
#X msg 102 33 2013;
#X msg 11 37 1905;
#X msg 52 38 60000;
#X obj 298 32 r point2;
#X obj 298 64 r point3;
#X obj 298 95 r point4;
#X obj 296 125 r point5;
#X obj 296 156 r point6;
#X obj 297 184 r point7;
#X obj 490 9 r min1;
#X obj 488 39 r min2;
#X obj 488 68 r min3;
#X obj 486 98 r min4;
#X obj 486 129 r min5;
#X obj 487 157 r min6;
#X obj 487 185 r min7;
#X obj 485 217 r min8;
#X obj 487 248 r min9;
#X obj 485 278 r min10;
#X obj 485 309 r min11;
#X obj 486 337 r min12;
#X obj 31 571 s fcurve1;
#X obj 555 571 s fcurve2;
#X msg 103 132 1905;
#X msg 12 136 2013;
#X msg 100 412 1905;
#X msg 9 416 1744;
#X msg 110 509 1744;
#X msg 246 39 1905;
#X msg 155 43 2013;
#X msg 243 323 1905;
#X msg 152 327 2013;
#X obj 615 351 line;
#X obj 598 293 t b b b b b;
#X msg 620 323 60000;
#X msg 670 318 1905;
#X msg 579 322 2408;
#X msg 671 413 2408;
#X msg 580 417 2013;
#X msg 817 40 1905;
#X msg 726 44 2013;
#X msg 727 143 2282;
#X msg 810 227 2282;
#X msg 719 231 2013;
#X connect 0 0 72 0;
#X connect 1 2 75 0;
#X connect 1 3 2 0;
#X connect 1 4 74 0;
#X connect 2 0 0 1;
#X connect 3 0 72 0;
#X connect 4 2 6 0;
#X connect 4 3 7 0;
#X connect 4 4 5 0;
#X connect 5 0 3 0;
#X connect 6 0 3 0;
#X connect 7 0 3 1;
#X connect 8 0 72 0;
#X connect 9 2 77 0;
#X connect 9 3 10 0;
#X connect 9 4 76 0;
#X connect 10 0 8 1;
#X connect 11 0 72 0;
#X connect 12 2 80 0;
#X connect 12 3 13 0;
#X connect 12 4 79 0;
#X connect 13 0 11 1;
#X connect 14 0 72 0;
#X connect 15 2 17 0;
#X connect 15 3 18 0;
#X connect 15 4 16 0;
#X connect 16 0 14 0;
#X connect 17 0 14 0;
#X connect 18 0 14 1;
#X connect 19 0 72 0;
#X connect 20 2 82 0;
#X connect 20 3 21 0;
#X connect 20 4 81 0;
#X connect 21 0 19 1;
#X connect 22 0 72 0;
#X connect 23 2 24 0;
#X connect 23 3 25 0;
#X connect 23 4 78 0;
#X connect 24 0 22 0;
#X connect 25 0 22 1;
#X connect 26 0 73 0;
#X connect 27 2 29 0;
#X connect 27 3 30 0;
#X connect 27 4 28 0;
#X connect 28 0 26 0;
#X connect 29 0 26 0;
#X connect 30 0 26 1;
#X connect 31 0 73 0;
#X connect 32 2 89 0;
#X connect 32 3 33 0;
#X connect 32 4 88 0;
#X connect 33 0 31 1;
#X connect 34 0 73 0;
#X connect 35 2 91 0;
#X connect 35 3 36 0;
#X connect 35 4 90 0;
#X connect 36 0 34 1;
#X connect 37 0 73 0;
#X connect 38 2 92 0;
#X connect 38 3 40 0;
#X connect 38 4 39 0;
#X connect 39 0 37 0;
#X connect 40 0 37 1;
#X connect 41 0 73 0;
#X connect 42 2 94 0;
#X connect 42 3 43 0;
#X connect 42 4 93 0;
#X connect 43 0 41 1;
#X connect 45 2 47 0;
#X connect 45 3 48 0;
#X connect 45 4 46 0;
#X connect 46 0 44 0;
#X connect 47 0 44 0;
#X connect 48 0 44 1;
#X connect 49 0 72 0;
#X connect 50 2 52 0;
#X connect 50 3 53 0;
#X connect 50 4 51 0;
#X connect 51 0 49 0;
#X connect 52 0 49 0;
#X connect 53 0 49 1;
#X connect 60 0 50 0;
#X connect 61 0 1 0;
#X connect 62 0 27 0;
#X connect 63 0 4 0;
#X connect 63 0 84 0;
#X connect 64 0 9 0;
#X connect 64 0 32 0;
#X connect 65 0 23 0;
#X connect 66 0 12 0;
#X connect 66 0 45 0;
#X connect 67 0 35 0;
#X connect 68 0 15 0;
#X connect 68 0 38 0;
#X connect 69 0 20 0;
#X connect 69 0 42 0;
#X connect 74 0 0 0;
#X connect 75 0 0 0;
#X connect 76 0 8 0;
#X connect 77 0 8 0;
#X connect 78 0 22 0;
#X connect 79 0 11 0;
#X connect 80 0 11 0;
#X connect 81 0 19 0;
#X connect 82 0 19 0;
#X connect 83 0 73 0;
#X connect 84 2 87 0;
#X connect 84 3 85 0;
#X connect 84 4 86 0;
#X connect 85 0 83 1;
#X connect 86 0 83 0;
#X connect 87 0 83 0;
#X connect 88 0 31 0;
#X connect 89 0 31 0;
#X connect 90 0 34 0;
#X connect 91 0 34 0;
#X connect 92 0 37 0;
#X connect 93 0 41 0;
#X connect 94 0 41 0;
