#N canvas 533 40 754 300 10;
#X obj 282 122 noise~;
#X obj 72 122 bp~;
#X obj 112 122 bp~;
#X msg 220 51 440;
#X msg 264 49 880;
#X obj 72 193 bp~;
#X obj 119 191 bp~;
#X obj 72 153 / 8;
#X obj 127 162 / 8;
#X obj 18 9 r f1;
#X obj 134 11 r f2;
#X obj 343 7 r q;
#X obj 51 243 s~ l;
#X obj 110 243 s~ r;
#X obj 175 243 s~ lowl;
#X obj 233 243 s~ lowr;
#X obj 284 147 *~;
#X msg 363 151 0;
#X msg 327 149 1;
#X obj 352 98 r start;
#X obj 367 125 r stop;
#X obj 64 63 osc~;
#X obj 123 54 osc~;
#X obj 56 275 osc~;
#X obj 119 268 osc~;
#X obj 292 213 s~ ol;
#X obj 351 213 s~ or;
#X obj 416 213 s~ olowl;
#X obj 485 213 s~ olowr;
#X connect 0 0 16 0;
#X connect 1 0 12 0;
#X connect 2 0 13 0;
#X connect 3 0 7 0;
#X connect 3 0 1 1;
#X connect 4 0 8 0;
#X connect 4 0 2 1;
#X connect 5 0 14 0;
#X connect 6 0 15 0;
#X connect 7 0 5 1;
#X connect 7 0 23 0;
#X connect 8 0 6 1;
#X connect 8 0 24 0;
#X connect 9 0 1 1;
#X connect 9 0 7 0;
#X connect 9 0 21 0;
#X connect 10 0 2 1;
#X connect 10 0 8 0;
#X connect 10 0 22 0;
#X connect 11 0 5 2;
#X connect 11 0 6 2;
#X connect 11 0 2 2;
#X connect 11 0 1 2;
#X connect 16 0 2 0;
#X connect 16 0 6 0;
#X connect 16 0 1 0;
#X connect 16 0 5 0;
#X connect 17 0 16 1;
#X connect 18 0 16 1;
#X connect 19 0 18 0;
#X connect 20 0 17 0;
#X connect 21 0 25 0;
#X connect 22 0 26 0;
#X connect 23 0 27 0;
#X connect 24 0 28 0;
