#N canvas 166 -9 1129 664 10;
#X obj 190 258 bng 300 250 50 0 empty empty empty 17 7 0 10 -262144
-1 -1;
#X obj 585 256 bng 300 250 50 0 empty empty empty 17 7 0 10 -262144
-1 -1;
#X obj 276 38 metro;
#X obj 308 12 f;
#X msg 188 -27 1;
#X obj 471 40 metro;
#X obj 503 14 f;
#X obj 745 -9 *~;
#X obj 791 -10 *~;
#X obj 649 -7 *~;
#X obj 704 -6 *~;
#X obj 856 -49 + 0;
#X text 891 -49 bass mult;
#X obj 1022 -35 vsl 15 128 0 0.5 0 0 empty empty xtra_juice 0 -9 0
10 -262144 -1 -1 0 1;
#X obj 630 53 dac~;
#X obj 312 -56 r val1;
#X obj 507 -54 r val2;
#X obj 682 -72 r v;
#X obj 188 -55 r start;
#X obj 611 -41 r~ l;
#X obj 668 -41 r~ r;
#X obj 733 -41 r~ lowl;
#X obj 791 -41 r~ lowr;
#X floatatom 353 -12 5 0 0 0 - - -, f 5;
#X floatatom 533 -15 5 0 0 0 - - -, f 5;
#X obj 373 65 bng 15 250 50 0 empty empty metro_panic 17 7 0 10 -262144
-1 -1;
#X obj 577 157 spigot;
#X obj 195 152 spigot;
#X obj 603 110 r playdont2;
#X obj 153 195 r playdont1;
#X msg 125 -29 0;
#X obj 123 -58 r stop;
#X obj 1055 -4 r start;
#X obj 1057 114 line;
#X obj 1055 22 t b b b;
#X msg 1079 61 0;
#X msg 1045 62 0.5;
#X msg 1063 88 20000;
#X obj 713 53 r~ l;
#X obj 772 53 r~ r;
#X obj 837 53 r~ lowl;
#X obj 895 53 r~ lowr;
#X obj 822 22 *~;
#X obj 868 21 *~;
#X obj 726 24 *~;
#X obj 781 25 *~;
#X connect 2 0 3 0;
#X connect 2 0 27 0;
#X connect 3 0 2 1;
#X connect 4 0 2 0;
#X connect 4 0 5 0;
#X connect 5 0 6 0;
#X connect 5 0 26 0;
#X connect 6 0 5 1;
#X connect 7 0 14 1;
#X connect 8 0 14 0;
#X connect 9 0 14 0;
#X connect 10 0 14 1;
#X connect 11 0 7 1;
#X connect 11 0 8 1;
#X connect 15 0 3 1;
#X connect 16 0 6 1;
#X connect 16 0 24 0;
#X connect 17 0 9 1;
#X connect 17 0 10 1;
#X connect 17 0 7 1;
#X connect 17 0 8 1;
#X connect 17 0 44 1;
#X connect 17 0 45 1;
#X connect 17 0 42 1;
#X connect 17 0 43 1;
#X connect 18 0 4 0;
#X connect 19 0 9 0;
#X connect 20 0 10 0;
#X connect 21 0 7 0;
#X connect 22 0 8 0;
#X connect 23 0 3 1;
#X connect 23 0 6 1;
#X connect 25 0 4 0;
#X connect 26 0 1 0;
#X connect 27 0 0 0;
#X connect 28 0 26 1;
#X connect 29 0 27 1;
#X connect 30 0 2 0;
#X connect 30 0 5 0;
#X connect 31 0 30 0;
#X connect 32 0 34 0;
#X connect 33 0 13 0;
#X connect 34 0 36 0;
#X connect 34 1 37 0;
#X connect 34 2 35 0;
#X connect 35 0 33 0;
#X connect 36 0 33 0;
#X connect 37 0 33 1;
#X connect 38 0 44 0;
#X connect 39 0 45 0;
#X connect 40 0 42 0;
#X connect 41 0 43 0;
#X connect 42 0 14 0;
#X connect 43 0 14 1;
#X connect 44 0 14 0;
#X connect 45 0 14 1;
#X coords 0 -1 1 1 900 500 1 100 100;
