#N canvas 27 12 864 442 10;
#X obj 114 208 bng 50 250 50 0 empty empty empty 17 7 0 10 -262144
-1 -1;
#X obj 332 206 bng 50 250 50 0 empty empty empty 17 7 0 10 -262144
-1 -1;
#X obj 128 108 metro;
#X obj 160 82 f;
#X msg 40 43 1;
#X obj 323 110 metro;
#X obj 355 84 f;
#X obj 602 65 *~;
#X obj 657 66 *~;
#X obj 501 63 *~;
#X obj 556 64 *~;
#X obj 708 21 + 0;
#X text 743 21 bass mult;
#X obj 726 57 vsl 15 128 0 0.5 0 0 empty empty xtra_juice 0 -9 0 10
-262144 -1 -1 12700 1;
#X obj 503 94 dac~;
#X obj 164 14 r val1;
#X obj 359 16 r val2;
#X obj 534 -2 r v;
#X obj 40 15 r start;
#X obj 463 29 r~ l;
#X obj 520 29 r~ r;
#X obj 585 29 r~ lowl;
#X obj 643 29 r~ lowr;
#X floatatom 205 58 5 0 0 0 - - -, f 5;
#X floatatom 385 55 5 0 0 0 - - -, f 5;
#X obj 225 135 bng 15 250 50 0 empty empty metro_panic 17 7 0 10 -262144
-1 -1;
#X obj 569 217 vsl 15 128 0 1 0 0 empty empty empty 0 -9 0 10 -262144
-1 -1 7620 1;
#X obj 755 79 loadbang;
#X msg 755 103 0.5;
#X connect 2 0 3 0;
#X connect 2 0 0 0;
#X connect 3 0 2 1;
#X connect 4 0 2 0;
#X connect 4 0 5 0;
#X connect 5 0 6 0;
#X connect 5 0 1 0;
#X connect 6 0 5 1;
#X connect 7 0 14 0;
#X connect 8 0 14 1;
#X connect 9 0 14 0;
#X connect 10 0 14 1;
#X connect 11 0 7 1;
#X connect 11 0 8 1;
#X connect 13 0 11 1;
#X connect 15 0 3 1;
#X connect 16 0 6 1;
#X connect 16 0 24 0;
#X connect 17 0 9 1;
#X connect 17 0 10 1;
#X connect 17 0 11 0;
#X connect 17 0 26 0;
#X connect 18 0 4 0;
#X connect 19 0 9 0;
#X connect 20 0 10 0;
#X connect 21 0 7 0;
#X connect 22 0 8 0;
#X connect 23 0 3 1;
#X connect 23 0 6 1;
#X connect 25 0 4 0;
#X connect 27 0 28 0;
#X connect 28 0 13 0;
#X coords 0 -1 1 1 300 300 1 100 100;
