#N canvas 669 314 494 300 10;
#X text 347 14 Q;
#X obj 248 66 noise~;
#X obj 249 111 bp~;
#X floatatom 324 73 5 0 0 0 - - -, f 5;
#X obj 326 105 hsl 128 15 0 400 0 0 empty empty empty -2 -8 0 10 -262144
-1 -1 5000 1;
#X floatatom 323 125 5 0 0 0 - - -, f 5;
#X obj 249 144 *~;
#X obj 186 62 vsl 15 128 0 1 0 0 empty empty empty 0 -9 0 10 -262144
-1 -1 0 1;
#X obj 254 182 dac~;
#X floatatom 370 82 5 0 0 0 - - -, f 5;
#X floatatom 134 171 5 0 0 0 - - -, f 5;
#X connect 1 0 2 0;
#X connect 2 0 6 0;
#X connect 3 0 2 1;
#X connect 4 0 2 2;
#X connect 4 0 5 0;
#X connect 6 0 8 0;
#X connect 6 0 8 1;
#X connect 7 0 6 1;
#X connect 7 0 10 0;
#X connect 9 0 4 0;
