#N canvas 0 50 1370 605 10;
#X text 630 22 Q;
#X obj 582 111 line;
#X msg 674 86 400;
#X msg 625 87 60000;
#X msg 582 86 300;
#X obj 598 55 t b b b b b;
#X obj 684 144 select 300;
#X obj 684 192 t b b b;
#X msg 733 214 300;
#X msg 681 214 200;
#X obj 684 167 delay 10;
#X obj 774 186 t b b b;
#X obj 775 160 delay 10;
#X msg 709 235 120000;
#X text 638 255 min 1;
#X text 743 254 min 3;
#X msg 801 238 180000;
#X obj 775 136 select 200;
#X msg 823 214 200;
#X msg 771 214 100;
#X obj 877 186 t b b b;
#X obj 878 160 delay 10;
#X obj 878 136 select 100;
#X msg 926 214 100;
#X msg 904 238 300000;
#X msg 874 214 0.2;
#X obj 978 185 t b b b;
#X obj 979 159 delay 10;
#X obj 979 135 select 0.2;
#X msg 1027 213 0.2;
#X msg 977 213 12;
#X text 598 305 v;
#X obj 586 397 line;
#X msg 596 371 60000;
#X obj 569 339 t b b b b b;
#X msg 645 370 0;
#X msg 554 370 0.8;
#X obj 698 414 select 0.8;
#X obj 698 459 t b b b;
#X text 853 257 min 6;
#X text 960 261 min 11;
#X msg 1005 237 60000;
#X text 632 535 min 1;
#X text 772 535 min 4;
#X text 864 532 min 6;
#X text 964 536 min 11;
#X msg 738 483 0.8;
#X msg 708 502 180000;
#X obj 808 463 t b b b;
#X obj 808 441 delay 10;
#X msg 849 486 0.4;
#X msg 786 484 0.2;
#X obj 808 418 select 0.5;
#X obj 910 464 t b b b;
#X obj 910 442 delay 10;
#X msg 675 480 0.5;
#X obj 910 419 select 0.2;
#X obj 1016 463 t b b b;
#X obj 1016 441 delay 10;
#X obj 933 559 line;
#X msg 1057 486 0.6;
#X msg 994 484 0;
#X obj 720 350 s q;
#X obj 608 577 s v;
#X obj 352 329 s f1;
#X obj 493 337 s f2;
#X text 300 466 here will be the maths for the metros conversion;
#X obj 306 521 s val1;
#X obj 410 519 s val2;
#X floatatom 310 361 5 0 0 0 - - -, f 5;
#X msg 311 381 60000 \$1;
#X floatatom 311 434 10 0 0 0 - - -, f 10;
#X text 389 435 bpm;
#X obj 313 406 /;
#X text 359 361 ms;
#X floatatom 448 359 5 0 0 0 - - -, f 5;
#X msg 449 379 60000 \$1;
#X floatatom 449 432 10 0 0 0 - - -, f 10;
#X text 527 433 bpm;
#X obj 451 404 /;
#X text 497 359 ms;
#X floatatom 352 306 5 0 0 0 - - -, f 5;
#X floatatom 493 315 5 0 0 0 - - -, f 5;
#X floatatom 355 500 5 0 0 0 - - -, f 5;
#X floatatom 471 499 5 0 0 0 - - -, f 5;
#X obj 318 491 * 4;
#X obj 432 493 * 4;
#X text 316 606 begin together move apart then partially back together
;
#X text 1170 84 2013 1905 \, 2282 1744 \, 2503;
#X msg 493 292 2013;
#X msg 352 283 2013;
#X obj 546 28 r start;
#X obj 322 225 r fcurve1;
#X obj 444 222 r fcurve2;
#X obj 310 339 / 2;
#X obj 448 337 / 2;
#X floatatom 579 251 5 0 0 0 - - -, f 5;
#X floatatom 904 585 5 0 0 0 - - -, f 5;
#X obj 696 268 line;
#X obj 774 273 line;
#X obj 876 280 line;
#X obj 1002 282 line;
#X obj 1028 549 line;
#X obj 835 548 line;
#X obj 710 546 line;
#X obj 22 37 minbyminfcurve;
#X msg 951 487 0.2;
#X msg 888 485 0.6;
#X obj 1016 418 select 0.6;
#X obj 698 437 delay 60000;
#X msg 818 506 180000;
#X msg 1026 506 120000;
#X msg 921 507 120000;
#X connect 1 0 6 0;
#X connect 1 0 62 0;
#X connect 1 0 96 0;
#X connect 2 0 1 0;
#X connect 3 0 1 1;
#X connect 4 0 1 0;
#X connect 5 2 4 0;
#X connect 5 3 3 0;
#X connect 5 4 2 0;
#X connect 6 0 10 0;
#X connect 7 0 9 0;
#X connect 7 1 13 0;
#X connect 7 2 8 0;
#X connect 8 0 98 0;
#X connect 9 0 98 0;
#X connect 10 0 7 0;
#X connect 11 0 19 0;
#X connect 11 1 16 0;
#X connect 11 2 18 0;
#X connect 12 0 11 0;
#X connect 13 0 98 1;
#X connect 16 0 99 1;
#X connect 17 0 12 0;
#X connect 18 0 99 0;
#X connect 19 0 99 0;
#X connect 20 0 25 0;
#X connect 20 1 24 0;
#X connect 20 2 23 0;
#X connect 21 0 20 0;
#X connect 22 0 21 0;
#X connect 23 0 100 0;
#X connect 24 0 100 1;
#X connect 25 0 100 0;
#X connect 26 0 30 0;
#X connect 26 1 41 0;
#X connect 26 2 29 0;
#X connect 27 0 26 0;
#X connect 28 0 27 0;
#X connect 29 0 101 0;
#X connect 30 0 101 0;
#X connect 32 0 37 0;
#X connect 32 0 63 0;
#X connect 32 0 97 0;
#X connect 33 0 32 1;
#X connect 34 2 36 0;
#X connect 34 3 33 0;
#X connect 34 4 35 0;
#X connect 35 0 32 0;
#X connect 35 0 63 0;
#X connect 36 0 32 0;
#X connect 37 0 109 0;
#X connect 38 0 55 0;
#X connect 38 1 47 0;
#X connect 38 2 46 0;
#X connect 41 0 101 1;
#X connect 46 0 104 0;
#X connect 47 0 104 1;
#X connect 48 0 51 0;
#X connect 48 1 110 0;
#X connect 48 2 50 0;
#X connect 49 0 48 0;
#X connect 50 0 103 0;
#X connect 51 0 103 0;
#X connect 52 0 49 0;
#X connect 53 0 107 0;
#X connect 53 1 112 0;
#X connect 53 2 106 0;
#X connect 54 0 53 0;
#X connect 55 0 104 0;
#X connect 56 0 54 0;
#X connect 57 0 61 0;
#X connect 57 1 111 0;
#X connect 57 2 60 0;
#X connect 58 0 57 0;
#X connect 59 0 63 0;
#X connect 59 0 97 0;
#X connect 59 0 108 0;
#X connect 60 0 102 0;
#X connect 61 0 102 0;
#X connect 69 0 70 0;
#X connect 70 0 73 0;
#X connect 71 0 85 0;
#X connect 73 0 71 0;
#X connect 75 0 76 0;
#X connect 76 0 79 0;
#X connect 77 0 86 0;
#X connect 79 0 77 0;
#X connect 81 0 64 0;
#X connect 81 0 94 0;
#X connect 82 0 65 0;
#X connect 82 0 95 0;
#X connect 85 0 67 0;
#X connect 85 0 83 0;
#X connect 86 0 68 0;
#X connect 86 0 84 0;
#X connect 89 0 82 0;
#X connect 90 0 81 0;
#X connect 91 0 5 0;
#X connect 91 0 34 0;
#X connect 91 0 89 0;
#X connect 91 0 90 0;
#X connect 92 0 81 0;
#X connect 93 0 82 0;
#X connect 94 0 69 0;
#X connect 95 0 75 0;
#X connect 98 0 17 0;
#X connect 98 0 62 0;
#X connect 98 0 96 0;
#X connect 99 0 22 0;
#X connect 99 0 62 0;
#X connect 99 0 96 0;
#X connect 100 0 28 0;
#X connect 100 0 62 0;
#X connect 100 0 96 0;
#X connect 101 0 62 0;
#X connect 101 0 96 0;
#X connect 102 0 63 0;
#X connect 102 0 97 0;
#X connect 103 0 56 0;
#X connect 103 0 63 0;
#X connect 103 0 97 0;
#X connect 104 0 63 0;
#X connect 104 0 52 0;
#X connect 104 0 97 0;
#X connect 106 0 59 0;
#X connect 107 0 59 0;
#X connect 108 0 58 0;
#X connect 109 0 38 0;
#X connect 110 0 103 1;
#X connect 111 0 102 1;
#X connect 112 0 59 1;
